<?xml version="1.0" encoding="utf-8"?>
<!-- Generator: Adobe Illustrator 27.0.1, SVG Export Plug-In . SVG Version: 6.00 Build 0)  -->
<svg version="1.1" id="Layer_1" xmlns="http://www.w3.org/2000/svg" xmlns:xlink="http://www.w3.org/1999/xlink" x="0px" y="0px"
	 viewBox="0 0 1366 768" style="enable-background:new 0 0 1366 768;" xml:space="preserve">
<style type="text/css">
	.st0{fill:#FFFFFF;}
	.st1{fill:#0090FF;}
</style>
<rect width="1366" height="771.5"/>
<g>
	<g>
		<path class="st0" d="M300.3,596.6v5.4h21.2v42.3h5.4V602h21.1v-5.4H300.3z M390.7,609.9c-0.7-1.2-1.7-2.2-2.9-2.9
			c-1.2-0.7-2.5-1.1-4-1.1h-25.7v-12.6h-5.4v50.9h5.4v-30.4c0-0.7,0.3-1.3,0.8-1.8c0.5-0.5,1.2-0.8,1.9-0.8h23
			c0.7,0,1.3,0.3,1.8,0.8s0.8,1.1,0.8,1.8v30.4h5.4v-30.4C391.8,612.4,391.5,611.1,390.7,609.9z M404.8,605.9c-1.4,0-2.8,0.4-4,1.1
			c-1.2,0.7-2.2,1.7-2.9,2.9c-0.7,1.2-1.1,2.6-1.1,4v30.4h5.4v-30.4c0-0.7,0.3-1.3,0.8-1.8c0.5-0.5,1.1-0.8,1.8-0.8h21.6v-5.4H404.8
			z M430.6,605.9v38.3h5.4v-38.3H430.6z M430.6,593.3v5.4h5.4v-5.4H430.6z M484.3,605.9l-18,33.1l-18-33.1H442l21.2,38.3h6.3
			l21.2-38.3H484.3z M533.3,627.8v-13.9c0-1.4-0.4-2.8-1.1-4c-0.7-1.2-1.7-2.2-2.9-2.9c-1.2-0.7-2.6-1.1-4.1-1.1h-23
			c-1.4,0-2.8,0.4-4,1.1c-1.2,0.7-2.2,1.7-2.9,2.9c-0.7,1.2-1.1,2.6-1.1,4v22.4c0,1.5,0.4,2.8,1.1,4c0.7,1.2,1.7,2.2,2.9,2.9
			c1.2,0.7,2.6,1.1,4,1.1h31.1v-5.4h-31.1c-0.7,0-1.3-0.3-1.8-0.8c-0.5-0.5-0.8-1.1-0.8-1.8v-8.5H533.3z M499.7,613.9
			c0-0.7,0.3-1.3,0.8-1.8s1.1-0.8,1.8-0.8h23c0.7,0,1.3,0.3,1.8,0.8c0.5,0.5,0.8,1.1,0.8,1.8v8.5h-28.2V613.9z M604.9,600.6
			c-0.7-1.2-1.7-2.2-2.9-2.9c-1.2-0.7-2.5-1.1-4-1.1h-39.7v47.5h5.4v-17.7H598c1.5,0,2.8-0.4,4-1.1c1.2-0.7,2.2-1.7,2.9-2.9
			c0.7-1.2,1.1-2.5,1.1-4v-14C606,603.1,605.6,601.8,604.9,600.6z M600.6,618.6c0,0.7-0.3,1.3-0.8,1.8c-0.5,0.5-1.1,0.7-1.8,0.7
			h-31.7c-0.7,0-1.3-0.2-1.8-0.7c-0.5-0.5-0.8-1.1-0.8-1.8v-14c0-0.7,0.3-1.3,0.8-1.8c0.5-0.5,1.1-0.8,1.8-0.8H598
			c0.7,0,1.3,0.3,1.8,0.8c0.5,0.5,0.8,1.1,0.8,1.8V618.6z M649.4,627.8v-13.9c0-1.4-0.4-2.8-1.1-4c-0.7-1.2-1.7-2.2-2.9-2.9
			c-1.2-0.7-2.6-1.1-4.1-1.1h-23c-1.5,0-2.8,0.4-4,1.1c-1.2,0.7-2.2,1.7-2.9,2.9c-0.7,1.2-1.1,2.6-1.1,4v22.4c0,1.5,0.4,2.8,1.1,4
			c0.7,1.2,1.7,2.2,2.9,2.9s2.5,1.1,4,1.1h31.1v-5.4h-31.1c-0.7,0-1.3-0.3-1.8-0.8c-0.5-0.5-0.8-1.1-0.8-1.8v-8.5H649.4z
			 M615.7,613.9c0-0.7,0.3-1.3,0.8-1.8c0.5-0.5,1.1-0.8,1.8-0.8h23c0.7,0,1.3,0.3,1.8,0.8s0.8,1.1,0.8,1.8v8.5h-28.2V613.9z
			 M663.8,605.9c-1.4,0-2.8,0.4-4,1.1c-1.2,0.7-2.2,1.7-2.9,2.9c-0.7,1.2-1.1,2.6-1.1,4v30.4h5.4v-30.4c0-0.7,0.3-1.3,0.8-1.8
			c0.5-0.5,1.1-0.8,1.8-0.8h21.6v-5.4H663.8z M728.5,614.4v-0.5c0-1.4-0.4-2.8-1.1-4c-0.7-1.2-1.7-2.2-2.9-2.9
			c-1.2-0.7-2.6-1.1-4.1-1.1h-23c-1.4,0-2.8,0.4-4,1.1c-1.2,0.7-2.2,1.7-2.9,2.9c-0.7,1.2-1.1,2.6-1.1,4v5.9c0,1.5,0.4,2.8,1.1,4
			s1.7,2.2,2.9,2.9s2.5,1.1,4,1.1h23c0.7,0,1.3,0.3,1.8,0.8c0.5,0.5,0.8,1.1,0.8,1.8v5.9c0,0.7-0.3,1.3-0.8,1.8
			c-0.5,0.5-1.1,0.8-1.8,0.8h-23c-0.7,0-1.3-0.3-1.8-0.8c-0.5-0.5-0.8-1.1-0.8-1.8v-0.5h-5.4v0.5c0,1.5,0.4,2.8,1.1,4
			c0.7,1.2,1.7,2.2,2.9,2.9s2.5,1.1,4,1.1h23c1.5,0,2.9-0.4,4.1-1.1c1.2-0.7,2.2-1.7,2.9-2.9c0.7-1.2,1.1-2.5,1.1-4v-5.9
			c0-1.5-0.4-2.8-1.1-4c-0.7-1.2-1.7-2.2-2.9-2.9c-1.2-0.7-2.6-1.1-4.1-1.1h-23c-0.7,0-1.3-0.3-1.8-0.8c-0.5-0.5-0.8-1.1-0.8-1.8
			v-5.9c0-0.7,0.3-1.3,0.8-1.8c0.5-0.5,1.1-0.8,1.8-0.8h23c0.7,0,1.3,0.3,1.8,0.8c0.5,0.5,0.8,1.1,0.8,1.8v0.5H728.5z M773,609.9
			c-0.7-1.2-1.7-2.2-2.9-2.9c-1.2-0.7-2.6-1.1-4.1-1.1h-23c-1.5,0-2.8,0.4-4,1.1c-1.2,0.7-2.2,1.7-2.9,2.9c-0.7,1.2-1.1,2.6-1.1,4
			v22.4c0,1.5,0.4,2.8,1.1,4c0.7,1.2,1.7,2.2,2.9,2.9s2.5,1.1,4,1.1h23c1.5,0,2.9-0.4,4.1-1.1s2.2-1.7,2.9-2.9
			c0.7-1.2,1.1-2.5,1.1-4v-22.4C774.1,612.4,773.7,611.1,773,609.9z M768.6,636.2c0,0.7-0.3,1.3-0.8,1.8c-0.5,0.5-1.1,0.8-1.8,0.8
			h-23c-0.7,0-1.3-0.3-1.8-0.8c-0.5-0.5-0.8-1.1-0.8-1.8v-22.4c0-0.7,0.3-1.3,0.8-1.8c0.5-0.5,1.1-0.8,1.8-0.8h23
			c0.7,0,1.3,0.3,1.8,0.8s0.8,1.1,0.8,1.8V636.2z M817.9,609.9c-0.7-1.2-1.7-2.2-2.9-2.9c-1.2-0.7-2.5-1.1-4-1.1h-31.1v38.3h5.4
			v-30.4c0-0.7,0.3-1.3,0.8-1.8c0.5-0.5,1.2-0.8,1.9-0.8h23c0.7,0,1.3,0.3,1.8,0.8s0.8,1.1,0.8,1.8v30.4h5.4v-30.4
			C819,612.4,818.7,611.1,817.9,609.9z M862.8,609.9c-0.7-1.2-1.7-2.2-2.9-2.9c-1.2-0.7-2.6-1.1-4.1-1.1h-23c-1.5,0-2.8,0.4-4,1.1
			c-1.2,0.7-2.2,1.7-2.9,2.9c-0.7,1.2-1.1,2.6-1.1,4v22.4c0,1.5,0.4,2.8,1.1,4c0.7,1.2,1.7,2.2,2.9,2.9s2.5,1.1,4,1.1h23
			c1.5,0,2.9-0.4,4.1-1.1s2.2-1.7,2.9-2.9c0.7-1.2,1.1-2.5,1.1-4v-22.4C863.9,612.4,863.5,611.1,862.8,609.9z M858.4,636.2
			c0,0.7-0.3,1.3-0.8,1.8c-0.5,0.5-1.1,0.8-1.8,0.8h-23c-0.7,0-1.3-0.3-1.8-0.8c-0.5-0.5-0.8-1.1-0.8-1.8v-22.4
			c0-0.7,0.3-1.3,0.8-1.8c0.5-0.5,1.1-0.8,1.8-0.8h23c0.7,0,1.3,0.3,1.8,0.8c0.5,0.5,0.8,1.1,0.8,1.8V636.2z M877.3,638.8
			c-0.7,0-1.3-0.3-1.8-0.8c-0.5-0.5-0.8-1.1-0.8-1.8v-42.9h-5.4v42.9c0,1.5,0.4,2.8,1.1,4c0.7,1.2,1.7,2.2,2.9,2.9s2.5,1.1,4,1.1
			h6.5v-5.4H877.3z M926.5,609.9c-0.7-1.2-1.7-2.2-2.9-2.9c-1.2-0.7-2.6-1.1-4.1-1.1h-23c-1.4,0-2.8,0.4-4,1.1
			c-1.2,0.7-2.2,1.7-2.9,2.9c-0.7,1.2-1.1,2.6-1.1,4v22.4c0,1.5,0.4,2.8,1.1,4c0.7,1.2,1.7,2.2,2.9,2.9c1.2,0.7,2.5,1.1,4,1.1h23
			c1.5,0,2.9-0.4,4.1-1.1c1.2-0.7,2.2-1.7,2.9-2.9c0.7-1.2,1.1-2.5,1.1-4v-22.4C927.6,612.4,927.2,611.1,926.5,609.9z M922.1,636.2
			c0,0.7-0.3,1.3-0.8,1.8c-0.5,0.5-1.1,0.8-1.8,0.8h-23c-0.7,0-1.3-0.3-1.8-0.8c-0.5-0.5-0.8-1.1-0.8-1.8v-22.4
			c0-0.7,0.3-1.3,0.8-1.8c0.5-0.5,1.1-0.8,1.8-0.8h23c0.7,0,1.3,0.3,1.8,0.8c0.5,0.5,0.8,1.1,0.8,1.8V636.2z M971.6,609.9
			c-0.7-1.2-1.7-2.2-2.9-2.9c-1.2-0.7-2.6-1.1-4.1-1.1h-23c-1.4,0-2.8,0.4-4,1.1c-1.2,0.7-2.2,1.7-2.9,2.9c-0.7,1.2-1.1,2.6-1.1,4
			v22.4c0,1.5,0.4,2.8,1.1,4c0.7,1.2,1.7,2.2,2.9,2.9c1.2,0.7,2.6,1.1,4,1.1h25.6v7.1c0,0.7-0.3,1.3-0.8,1.8
			c-0.5,0.5-1.1,0.8-1.8,0.8h-23.9v5.5h23.9c1.5,0,2.9-0.4,4.1-1.1c1.2-0.7,2.2-1.7,2.9-2.9c0.7-1.2,1.1-2.6,1.1-4.1v-37.4
			C972.6,612.4,972.3,611.1,971.6,609.9z M967.2,636.2c0,0.7-0.3,1.3-0.8,1.8c-0.5,0.5-1.1,0.8-1.8,0.8h-23c-0.7,0-1.3-0.3-1.8-0.8
			c-0.5-0.5-0.8-1.1-0.8-1.8v-22.4c0-0.7,0.3-1.3,0.8-1.8s1.1-0.8,1.8-0.8h23c0.7,0,1.3,0.3,1.8,0.8c0.5,0.5,0.8,1.1,0.8,1.8V636.2z
			 M1012.4,606v30.2c0,0.7-0.3,1.3-0.8,1.8c-0.5,0.5-1.1,0.8-1.8,0.8h-23c-0.7,0-1.3-0.3-1.8-0.8c-0.5-0.5-0.8-1.1-0.8-1.8V606h-5.4
			v30.2c0,1.5,0.4,2.8,1.1,4c0.7,1.2,1.7,2.2,2.9,2.9s2.5,1.1,4,1.1h25.6v7.1c0,0.7-0.3,1.3-0.8,1.8s-1.1,0.8-1.8,0.8h-23.9v5.5
			h23.9c1.5,0,2.9-0.4,4.1-1.1c1.2-0.7,2.2-1.7,2.9-2.9s1.1-2.6,1.1-4.1V606H1012.4z"/>
	</g>
	<g>
		<g>
			<path class="st0" d="M623.5,302V405h17V302H623.5z"/>
			<path class="st0" d="M652.9,302v102.7h17V302H652.9z"/>
		</g>
		<path class="st0" d="M762,226.1v32.5c0,4.6-1.1,8.8-3.4,12.6c-2.3,3.8-5.3,6.8-9.2,9.2s-8.1,3.5-12.7,3.5h-66.9V302h-17v-35.4
			h83.9c2.2,0,4.2-0.8,5.8-2.3c1.6-1.6,2.4-3.4,2.4-5.7v-32.5c0-2.2-0.8-4.2-2.4-5.8c-1.6-1.6-3.5-2.4-5.8-2.4h-88.5
			c0,0-1.4,0-3.7,0h-4.1V302h-17v-84.1h-49.2v20.7h-18.2v-37.7h180.6c4.6,0,8.9,1.2,12.7,3.5c3.9,2.3,6.9,5.4,9.2,9.2
			C760.9,217.3,762,221.5,762,226.1z"/>
	</g>
	<g>
		<path class="st1" d="M792,431.6c-7.8,7.8-16.2,14.9-25.2,21.2c-6.9,4.8-14,9.1-21.4,12.9c-2.4,1.2-4.8,2.4-7.2,3.5
			c-1.1,0.5-2.3,1.1-3.4,1.6c-0.5,0.2-1,0.4-1.6,0.7c-1.2,0.5-2.5,1-3.7,1.5c-0.3,0.1-0.7,0.3-1,0.4c-3.5,1.4-7.1,2.6-10.7,3.8l0,0
			c-4.8,1.6-9.7,2.9-14.6,4.1c-11.1,2.7-22.4,4.2-33.8,4.7c-11.3,0.6-22.7,0-34-1.6c-8.9-1.3-17.7-3.2-26.3-5.7l0-0.1
			c-0.9-0.3-1.7-0.5-2.6-0.8c-10.8-3.4-21.2-7.8-31.2-13.1c0,0,0,0-0.1,0c-0.1-0.1-0.2-0.1-0.3-0.1c-1.2-0.6-2.3-1.2-3.4-1.9
			c0,0,0,0-0.1,0c0,0,0,0-0.1,0c-0.9-0.5-1.8-0.6-2.7-0.2c-0.9,0.2-1.6,0.9-2.1,1.8c-0.5,0.9-0.6,1.9-0.2,2.7c0.4,0.7,1,1.5,1.8,2
			c1.2,0.6,2.4,1.2,3.5,1.8c0.1,0.1,0.2,0.2,0.4,0.3c10.5,5.2,21.4,9.6,32.7,12.8c1.5,0.4,3.1,0.9,4.6,1.2l0-0.1
			c8.4,2.2,16.8,3.8,25.4,4.7c11.6,1.4,23.3,1.6,34.9,0.7c11.7-0.8,23.1-2.7,34.4-5.7c4.7-1.2,9.3-2.7,13.9-4.2l0,0.1
			c7.8-2.7,15.4-5.9,22.8-9.6c10.4-5.2,20.2-11.3,29.5-18.3c9.2-7,17.7-14.9,25.5-23.4c7.8-8.5,14.6-17.8,20.7-27.7
			c-1.3,2-2.7,4-4,6c0.5-0.8,1.1-1.6,1.6-2.5C807.5,414.6,800.2,423.5,792,431.6z"/>
		<path class="st1" d="M668.1,98.4c-12.8-0.4-25.6,0.4-38.1,2.3c-9.9,1.5-19.7,3.8-29.2,6.8l0-0.1c-4,1.3-8,2.6-12,4.1
			c-11.9,4.5-23.3,10.1-34.2,16.8c-10.8,6.6-21,14.2-30.3,22.7c-9.4,8.5-17.9,17.8-25.6,28c7.8-9.9,16.6-19,26.1-27.3
			c9.5-8.2,19.8-15.6,30.7-21.9c6.8-3.9,13.8-7.4,20.9-10.6c0.8-0.3,1.6-0.7,2.4-1c0.6-0.3,1.3-0.5,1.9-0.8c1.1-0.4,2.2-0.9,3.2-1.3
			c0.4-0.1,0.7-0.3,1.1-0.4c0.9-0.3,1.7-0.6,2.6-1c0.6-0.2,1.2-0.5,1.9-0.7c1.4-0.5,2.9-1,4.3-1.5c11.9-3.9,24.2-6.7,36.6-8.4
			c12.4-1.6,25-2.1,37.4-1.4c12.5,0.7,24.8,2.6,37,5.5c12.1,3,23.9,7.1,35.2,12.3c11.3,5.1,22,11.3,32.2,18.6
			c0.9,0.6,1.8,0.7,2.7,0.6c0.9-0.2,1.7-0.7,2.2-1.5c0.6-0.8,0.7-1.8,0.6-2.7c-0.2-0.9-0.7-1.7-1.5-2.2c-0.9-0.6-1.7-1.1-2.6-1.7
			c-0.3-0.5-0.6-0.9-1.2-1.2c-10.8-6.9-22.2-12.8-34.2-17.6c-9.4-3.8-19.1-6.9-29-9.3l0,0.4c-1.1-0.3-2.2-0.5-3.3-0.8
			C693.6,100.3,680.9,98.8,668.1,98.4z"/>
		<path class="st1" d="M749.7,136.9c-0.8-0.4-1.7-0.9-2.5-1.3c-0.3-0.4-0.7-0.7-1.1-0.9c-10.5-5.2-21.4-9.6-32.7-12.8
			c-1.2-0.3-2.5-0.7-3.7-1l0,0.3c-8.8-2.3-17.7-4.1-26.6-5.1c-11.6-1.4-23.3-1.6-34.9-0.7c-11.6,0.8-23.1,2.7-34.4,5.7
			c-4.3,1.1-8.5,2.4-12.6,3.8l0-0.1c-8.2,2.7-16.1,6.1-23.8,9.9c-10.4,5.2-20.2,11.3-29.5,18.4c-9.2,6.9-17.7,14.9-25.5,23.4
			c-7.8,8.5-14.6,17.8-20.7,27.7c6.2-9.7,13.4-18.7,21.3-27.1c7.9-8.3,16.6-15.9,25.9-22.6c8.8-6.3,18-11.8,27.7-16.5
			c1.2-0.6,2.4-1.2,3.7-1.7c0.7-0.3,1.5-0.7,2.2-1c4.7-2.1,9.5-3.9,14.3-5.6c1.4-0.5,2.9-1,4.3-1.4l0,0c4.4-1.4,8.9-2.6,13.4-3.7
			c11.1-2.7,22.4-4.2,33.8-4.7c11.3-0.5,22.7,0,34,1.6c11.3,1.6,22.3,4.3,33,7.9c10.7,3.6,21,8.3,30.9,13.8c0,0,0,0,0.1,0
			c0,0,0,0,0.1,0c0.9,0.5,1.8,0.6,2.7,0.2c0.9-0.2,1.6-0.9,2.1-1.7c0.5-0.9,0.6-1.8,0.2-2.7C751.2,138.1,750.6,137.3,749.7,136.9z"
			/>
		<path class="st1" d="M517.9,92.3c4.1-2.7,8.2-5.3,12.4-7.8c7.9-4.6,16.1-8.8,24.6-12.4c14.4-6.4,29.5-11.4,44.7-14.9l0-0.1
			c2-0.5,4-0.9,6-1.3c15.6-3.2,31.4-4.9,47.3-5.1c15.9-0.2,31.7,1,47.4,3.8c2.7,0.5,5.3,1,8,1.6l0,0c5.4,1.1,10.7,2.4,16,3.9
			c0.4,0.1,0.8,0.2,1.1,0.3c2,0.6,4,1.2,6,1.8c0.7,0.2,1.3,0.4,2,0.6c2.4,0.8,4.8,1.6,7.1,2.4c14.9,5.3,29.4,12,43,19.9
			c13.7,8,26.5,17.2,38.4,27.6c11.9,10.4,22.8,21.9,32.4,34.3c0.2,0.3,0.4,0.5,0.7,0.6c1,1.3,2,2.6,3,4c0.6,0.8,1.4,1.2,2.3,1.4
			c0.9,0.1,1.8-0.1,2.6-0.7c0.8-0.6,1.2-1.4,1.4-2.3c0.1-0.9-0.2-1.8-0.7-2.7c-4.7-6-9.6-11.8-14.8-17.4c-7.2-7.7-14.9-15.1-23-21.9
			c-12.4-10.4-25.7-19.7-39.8-27.5s-28.9-14.4-44.2-19.5c-11-3.7-22.4-6.6-33.7-8.7l0,0.3c-2.4-0.4-4.8-0.9-7.2-1.3
			c-15.9-2.5-32-3.4-48-3c-16.1,0.6-32,2.6-47.6,6.1c-1.9,0.4-3.8,0.9-5.7,1.4l0-0.2c-15.6,3.9-30.7,9.2-45.1,16
			C539.9,78,526.1,86,513.2,95.4c2.8-1.9,5.6-3.8,8.5-5.6C520.4,90.6,519.1,91.4,517.9,92.3z"/>
		<path class="st1" d="M820.2,395.2c0.9,0.5,1.8,0.5,2.7,0.2c0.9-0.2,1.6-0.9,2.1-1.7c0.7-1.3,1.4-2.7,2-4c0,0,0,0,0,0
			c0.1-0.2,0.2-0.4,0.3-0.6c1.8-3.7,3.6-7.5,5.2-11.4c2.8-6.8,5.3-13.7,7.3-20.7c3.2-11.3,5.4-22.8,6.4-34.4
			c1.1-11.6,1.1-23.3-0.1-35c-1.1-11.6-3.3-23.1-6.5-34.2c-3.2-11.2-7.4-22-12.6-32.4c-5.2-10.3-11.3-20.2-18.4-29.5
			c-6.9-9.2-14.9-17.7-23.4-25.5c-8.5-7.8-17.8-14.6-27.7-20.7c2.8,1.8,5.5,3.6,8.1,5.5c-1.5-1-3-2.1-4.6-3
			c9.6,6.4,18.4,13.8,26.6,21.9c8.1,8.1,15.5,17,22,26.4c6.5,9.5,12.1,19.5,16.7,30c3.2,7.1,5.8,14.5,8,21.9h0
			c0.6,2.1,1.2,4.2,1.8,6.3c2.9,11,4.7,22.3,5.5,33.7c0.7,11.3,0.5,22.7-0.8,34c-1.3,11.3-3.7,22.4-7.1,33.2
			c-3.4,10.8-7.8,21.2-13.1,31.2c0,0,0,0,0,0.1c-0.6,1.2-1.3,2.4-2,3.6c0,0,0,0,0,0.1c-0.3,0.5-0.4,1.1-0.4,1.6
			c0,0.4,0.1,0.7,0.2,1.1C818.8,394,819.4,394.7,820.2,395.2z"/>
		<path class="st1" d="M689.1,538.7c10.1-1.4,20.1-3.4,30-6.1l0,0.1c6.3-1.7,12.6-3.7,18.8-5.9c14-5.1,27.5-11.5,40.3-19.1
			c12.8-7.6,24.8-16.4,36-26.2c-2.3,2-4.7,3.9-7,5.8c0.9-0.8,1.9-1.5,2.8-2.3c-11.5,9.4-23.9,17.6-36.9,24.7
			c-13,7.1-26.8,12.8-40.9,17.2c-14.1,4.4-28.6,7.5-43.3,9.2c-14.7,1.7-29.5,2.1-44.2,1c-14.7-1-29.3-3.5-43.5-7.2
			c-11.2-3-22.2-6.8-32.8-11.3c-1.1-0.5-2.3-1-3.4-1.5c-13.4-6-26.2-13.4-38.2-21.8c-12-8.4-23.2-18-33.4-28.5
			c-0.2-0.2-0.5-0.4-0.7-0.5c-1.1-1.1-2.1-2.2-3.2-3.3c-0.7-0.7-1.6-1.1-2.6-1.1c-0.9,0-1.8,0.3-2.5,1c-0.6,0.6-1,1.6-1,2.5
			c0,0.9,0.3,1.9,1,2.5c10.4,10.9,21.9,20.7,34.2,29.4c0.2,0.1,0.4,0.3,0.6,0.4c1.4,1,2.8,1.9,4.2,2.9c12.5,8.4,25.7,15.7,39.5,21.5
			c13.8,6,28.2,10.5,42.8,13.7c1.7,0.3,3.3,0.7,4.9,1l0-0.1c11.2,2.2,22.5,3.6,33.8,4.2C659.3,541.5,674.4,540.8,689.1,538.7z"/>
		<path class="st1" d="M549.8,453c3.5,2.5,7.1,4.8,10.8,7.1c-9.7-6.2-18.8-13.4-27.1-21.3c-8.3-7.9-15.9-16.6-22.6-25.8
			c-6.7-9.3-12.5-19.2-17.4-29.6c-4.8-10.3-8.8-21.1-11.6-32.2c-2.9-11-4.7-22.3-5.5-33.7c-0.8-11.3-0.5-22.7,0.8-34
			c1.4-11.3,3.7-22.4,7.1-33.2c3.4-10.8,7.8-21.2,13.1-31.2c0,0,0,0,0-0.1c0,0,0,0,0-0.1c0,0,0,0,0,0c0.6-1.1,1.2-2.1,1.7-3.2
			c0,0,0,0,0-0.1c0,0,0,0,0-0.1c0.5-0.9,0.6-1.8,0.2-2.7c-0.2-0.9-0.9-1.6-1.8-2.1c-0.9-0.5-1.8-0.5-2.7-0.2
			c-0.9,0.2-1.6,0.9-2.1,1.7c-5.5,10.4-10,21.2-13.5,32.4c-0.3,1.2-0.8,2.4-1.1,3.6h0.2c0,0.1-0.1,0.2-0.1,0.4
			c-3.2,11.2-5.4,22.8-6.5,34.4c-1.1,11.6-1.1,23.3,0.1,34.9c1.1,11.6,3.3,23.1,6.5,34.3c0.5,1.6,0.9,3.2,1.4,4.7h-0.2
			c2.5,8.3,5.7,16.3,9.4,24c5,10.5,10.8,20.5,17.7,29.9c6.7,9.4,14.5,18.1,22.8,26c8.4,7.9,17.5,15,27.2,21.3
			C554.5,456.4,552.1,454.7,549.8,453z"/>
		<path class="st1" d="M649.9,507.3c12.8,0.4,25.6-0.4,38.1-2.3c10.3-1.6,20.4-4,30.3-7.1l0,0.1c3.7-1.1,7.4-2.4,11-3.8
			c11.9-4.5,23.3-10.1,34.1-16.8c10.8-6.6,21-14.2,30.3-22.7c9.4-8.5,17.9-17.8,25.6-28c-6.8,8.6-14.4,16.7-22.5,24.1
			c-2.3,2.1-4.6,4.1-7,6.1c-9.7,8-20.2,15.1-31.2,21.2c-11,6-22.6,11.1-34.5,15c-11.9,3.9-24.2,6.7-36.6,8.3
			c-12.4,1.6-25,2.1-37.4,1.4c-12.5-0.7-24.8-2.6-37-5.5c-12.1-3-23.9-7.1-35.2-12.3c-1.7-0.8-3.4-1.6-5.1-2.4
			c-8.1-4-15.9-8.5-23.3-13.5c0,0,0,0,0,0c-1.3-0.9-2.6-1.8-3.8-2.7c-0.9-0.6-1.8-0.7-2.6-0.6c-0.9,0.2-1.7,0.7-2.2,1.5
			c-0.6,0.8-0.7,1.8-0.6,2.6c0.2,0.9,0.7,1.7,1.5,2.3c1,0.7,2.1,1.4,3.1,2.1c0.2,0.3,0.5,0.5,0.8,0.7c10.8,6.9,22.2,12.8,34.2,17.6
			c9.8,3.9,19.8,7.1,30,9.5l0-0.2c0.7,0.2,1.4,0.3,2.2,0.5C624.4,505.4,637.2,506.9,649.9,507.3z"/>
		<path class="st1" d="M800.2,513.6c-8.8,5.8-17.9,11-27.3,15.6c-3.1,1.5-6.3,3-9.5,4.4c-1.6,0.7-3.2,1.4-4.8,2.1
			c-0.2,0.1-0.4,0.2-0.6,0.3c-12.5,5.1-25.3,9.3-38.5,12.4l0,0c-2.4,0.6-4.8,1.1-7.1,1.6c-15.6,3.2-31.5,4.9-47.3,5.1
			c-15.9,0.2-31.7-1-47.4-3.8c-2.3-0.4-4.5-0.8-6.8-1.3l0-0.1c-11.3-2.3-22.4-5.4-33.3-9.2c-14.9-5.3-29.4-12-42.9-19.9
			c-13.6-8-26.5-17.2-38.4-27.6c-11.9-10.4-22.8-21.9-32.4-34.3c-0.3-0.3-0.6-0.6-0.9-0.8c-1-1.2-1.9-2.5-2.9-3.7
			c-0.6-0.8-1.4-1.2-2.3-1.4c-0.9-0.1-1.8,0.1-2.6,0.7c-0.8,0.6-1.2,1.5-1.4,2.3c-0.1,0.9,0.1,1.8,0.7,2.6
			c10,12.8,21,24.6,33.2,35.3c12.1,10.7,25.2,20.2,39.1,28.4c7,4.1,14.1,7.9,21.4,11.3c9.1,4.3,18.5,8.1,28.1,11.2
			c11.4,3.8,23,6.7,34.8,8.9l0,0c2,0.4,4.1,0.7,6.1,1c15.9,2.5,32,3.5,48,3c16.1-0.6,32-2.6,47.6-6.1c2.3-0.5,4.5-1.1,6.8-1.6l0,0
			c15.2-3.8,30.1-9.1,44.3-15.7c14.5-6.8,28.3-14.8,41.3-24.2c-2,1.4-4.1,2.8-6.2,4.1C799.4,514.1,799.8,513.9,800.2,513.6z"/>
		<path class="st1" d="M504.7,459.1c-0.9-0.9-1.7-1.8-2.6-2.7c2,2,4.1,4,6.2,6c-9.9-9.5-18.9-20-26.7-31.2
			c-7.9-11.2-14.8-23.1-20.4-35.5c-5.7-12.5-10.1-25.4-13.4-38.7c-3.3-13.3-5.3-26.8-6-40.4c-0.7-13.6-0.1-27.2,1.6-40.8
			c1.8-13.5,4.8-26.8,9.1-39.7c4.3-12.9,9.8-25.3,16.4-37.1c6.7-11.7,14.4-22.9,23.1-33.3c0.2-0.2,0.3-0.4,0.4-0.6
			c0.9-1,1.7-2,2.6-3c0.6-0.6,0.8-1.4,0.8-2.2c0-0.1,0-0.2,0-0.3c-0.1-0.9-0.5-1.8-1.3-2.4c-0.7-0.6-1.7-0.9-2.6-0.8
			c-0.9,0.1-1.8,0.5-2.4,1.3c-0.9,1.1-1.8,2.2-2.8,3.3c-0.1,0.1-0.2,0.2-0.3,0.4c-4.5,5.5-8.6,11.3-12.5,17.2
			c-0.1,0.2-0.2,0.4-0.4,0.6c-0.8,1.2-1.6,2.4-2.4,3.7c-0.8,1.4-1.7,2.7-2.5,4.1c0,0.1-0.1,0.1-0.1,0.2c-1,1.6-1.9,3.2-2.8,4.9
			c-6.8,12.1-12.5,24.9-16.9,38.1c-2,6-3.7,12-5.2,18.1h0.1c-2.2,9-3.8,18.1-4.8,27.2c-1.5,13.8-1.8,27.7-0.8,41.5
			c1,13.5,3.3,26.9,6.7,40h0c3.1,12.1,7.3,23.9,12.5,35.3c5.7,12.5,12.5,24.6,20.5,35.8C485.8,439.1,494.8,449.7,504.7,459.1z"/>
		<path class="st1" d="M821.4,478.4c0.9,0,1.8-0.3,2.5-1c1-1,2-2,3-3c0.4-0.2,0.7-0.4,1-0.7c10.6-10.7,20.2-22.4,28.6-34.9
			c8.4-12.5,15.7-25.7,21.5-39.5c5.9-13.8,10.5-28.1,13.7-42.8c3.2-14.6,5-29.5,5.5-44.5c0.5-14.9-0.5-29.9-2.9-44.7
			c-2.3-14.7-6.1-29.3-11.2-43.3c-5.1-14-11.5-27.5-19.1-40.3c-7.6-12.8-16.4-24.8-26.2-36c2.9,3.4,5.7,6.9,8.4,10.4
			c-1.7-2.1-3.4-4.2-5.1-6.3c9.4,11.5,17.6,23.9,24.7,36.9c7.1,13,12.8,26.8,17.2,40.9c1.9,6.1,3.5,12.1,5,18.3h0.1
			c1.5,6.5,2.7,13,3.6,19.6c2,14.7,2.7,29.4,2,44.2c-0.7,14.7-2.8,29.4-6.2,43.7c-0.1,0.4-0.2,0.8-0.3,1.2h-0.1
			c-0.3,1.3-0.7,2.6-1,3.9c-3.8,14.2-8.8,28-15.2,41.3c-6.3,13.3-14,25.9-22.7,37.7c-8.7,11.8-18.5,22.7-29.2,32.7
			c-0.7,0.7-1,1.6-1,2.5c0,0.9,0.3,1.8,1,2.5C819.6,478.1,820.6,478.4,821.4,478.4z"/>
		<path class="st1" d="M869.6,356.8h-0.2c-1.6,5.9-3.3,11.6-5.4,17.4c-4.6,12.8-10.4,25.1-17.3,36.8c-3.1,5.2-6.4,10.3-9.9,15.2
			c-3.3,4.7-6.8,9.2-10.5,13.7c0,0.1-0.1,0.1-0.1,0.2c-1.1,1.3-2.1,2.5-3.2,3.8c-0.6,0.6-0.8,1.4-0.8,2.2c0,0.1,0,0.2,0,0.3
			c0.1,0.9,0.5,1.8,1.3,2.4c0.7,0.6,1.7,0.9,2.6,0.8c0.9-0.1,1.8-0.5,2.4-1.3c0.9-1.1,1.8-2.2,2.7-3.3c0.3-0.2,0.5-0.4,0.7-0.7
			c8.7-10.9,16.4-22.6,23-34.9c6.5-12.3,12-25.2,16-38.5c4.1-13.3,7-26.9,8.5-40.7c1.5-13.8,1.9-27.7,0.8-41.5
			c-1-13.8-3.4-27.5-6.9-40.8c-3.6-13.3-8.4-26.3-14.4-38.8c-6-12.4-13.1-24.3-21.3-35.3c-8.2-11.1-17.4-21.4-27.5-30.6
			c4,3.9,7.9,7.9,11.6,12.1c-2.7-2.9-5.5-5.7-8.3-8.5c9.7,9.7,18.4,20.4,26,31.8c7.6,11.4,14.2,23.5,19.6,36
			c4.6,10.9,8.4,22.2,11.3,33.6h0.3c0,0.1,0.1,0.3,0.1,0.4c3.3,13.3,5.3,26.8,6,40.4c0.7,13.6,0.1,27.2-1.6,40.7
			C873.8,338.8,872,347.9,869.6,356.8z"/>
		<path class="st1" d="M455,421.5c-7.4-12.9-13.4-26.5-18.1-40.5c-4.7-14-8.2-28.4-10.2-43.1c-2-14.7-2.8-29.4-2-44.2
			c0.7-14.7,2.8-29.4,6.2-43.7c3.4-14.3,8.2-28.2,14.2-41.6c6-13.4,13.3-26.2,21.8-38.2c8.3-12,17.9-23.2,28.4-33.4
			c0.2-0.2,0.3-0.4,0.4-0.5c1-1,2.1-2,3.1-3c0.7-0.6,1-1.6,1.1-2.5c0-0.9-0.3-1.8-1-2.5c-0.6-0.7-1.6-1-2.5-1c-0.9,0-1.8,0.3-2.5,1
			c-1.1,1-2.1,2.1-3.1,3.1c-0.2,0.1-0.4,0.3-0.5,0.4c-10.6,10.7-20.2,22.4-28.6,34.9c-0.1,0.1-0.1,0.2-0.2,0.2
			c-7.4,11-13.9,22.6-19.4,34.6c-6.3,13.7-11.2,27.9-14.7,42.5c-0.3,1.3-0.6,2.6-0.9,4h0.2c-0.1,0.4-0.2,0.7-0.2,1.1
			c-3.2,14.6-5,29.5-5.5,44.5c-0.5,14.9,0.5,29.9,3,44.7c1,6.2,2.2,12.3,3.7,18.4h-0.2c1.6,6.7,3.5,13.2,5.7,19.8
			c4.7,14.1,10.8,27.8,18.2,40.7c7.3,12.9,15.8,25.2,25.4,36.6c-2.4-2.9-4.6-5.8-6.8-8.8c3.4,4.4,6.9,8.7,10.6,12.9
			C470.9,446.6,462.4,434.4,455,421.5z"/>
		<path class="st1" d="M530.6,125.3c11.2-7.9,23.1-14.8,35.5-20.4c11.1-5,22.5-9.1,34.3-12.2l0-0.3c3-0.8,6.1-1.6,9.1-2.2
			c13.3-3,26.9-4.7,40.6-5.1c13.7-0.4,27.2,0.5,40.6,2.6c6.2,1,12.3,2.2,18.3,3.7l0,0.2c5.6,1.4,11.1,2.9,16.5,4.8
			c12.9,4.3,25.3,9.8,37.2,16.4c3.8,2.1,7.5,4.4,11.1,6.7c9.1,5.9,17.7,12.4,25.9,19.5c0.8,0.6,1.7,0.9,2.7,0.8
			c0.9-0.1,1.8-0.5,2.4-1.3c0.6-0.7,0.9-1.7,0.8-2.6c-0.1-0.9-0.5-1.8-1.3-2.4c-1-0.9-2-1.7-3.1-2.5c-0.2-0.3-0.4-0.5-0.7-0.8
			c-10.9-8.8-22.6-16.4-34.9-23c-12.3-6.5-25.2-11.9-38.4-16c-6-1.9-12.1-3.5-18.2-4.8l0,0.1c-5.8-1.3-11.7-2.3-17.6-3.1
			c-13.7-1.8-27.6-2.5-41.4-1.8c-13.8,0.7-27.6,2.7-41,5.9c-13.4,3.3-26.5,7.8-39.1,13.5c-12.5,5.7-24.6,12.5-35.8,20.5
			c-11.3,7.9-21.8,16.9-31.3,26.8c1.6-1.6,3.2-3.1,4.9-4.6c-2.8,2.7-5.6,5.6-8.2,8.5C508.9,142.3,519.4,133.3,530.6,125.3z"/>
		<path class="st1" d="M913.8,290.9c-0.9-16-3.3-31.9-7.2-47.5s-9.2-30.7-16-45.2c-6.8-14.5-14.8-28.4-24.2-41.3
			c1.1,1.6,2.3,3.2,3.4,4.9c8.7,13.3,16.2,27.4,22.2,42.1c5.9,14.3,10.5,29.1,13.7,44.2h0.1c3,14.1,4.7,28.4,5.3,42.9
			c0.6,15.9-0.3,31.7-2.7,47.5c-0.9,6.1-2.1,12.2-3.5,18.3h0c-2.6,11.2-5.9,22.3-10,33c-5.6,14.8-12.6,29.1-20.9,42.5
			c-8.3,13.4-17.8,26.1-28.4,37.8c-10.7,11.7-22.4,22.2-35,31.7c-0.8,0.6-1.2,1.4-1.4,2.3c-0.1,0.9,0.1,1.8,0.7,2.7
			c0.6,0.8,1.4,1.2,2.3,1.4c0.9,0.1,1.9-0.2,2.7-0.7c1.3-1,2.5-2,3.7-3c0.3-0.1,0.6-0.3,0.9-0.5c12.5-10.3,24.1-21.6,34.5-34
			c10.4-12.4,19.7-25.7,27.5-39.8c7.9-14.1,14.4-28.9,19.5-44.2c5.1-15.3,8.7-31,10.8-46.9C914.1,323.1,914.7,307,913.8,290.9z"/>
		<path class="st1" d="M508.2,120.5c-1.4,1.2-2.8,2.4-4.2,3.6c11.3-9.7,23.5-18.1,36.4-25.5c12.9-7.3,26.5-13.4,40.5-18.1
			c6.3-2.1,12.7-4,19.1-5.6l0-0.1c9.6-2.4,19.3-4.2,29.2-5.3c14.7-1.7,29.5-2.1,44.2-1c14.7,1,29.3,3.4,43.5,7.2
			c14.2,3.8,28,8.8,41.3,15.2c9.5,4.6,18.7,9.8,27.5,15.6c1.9,1.3,3.9,2.6,5.8,3.9c0.8,0.6,1.6,1.1,2.3,1.7c0.7,0.5,1.4,1,2.1,1.5
			c2.3,1.7,4.5,3.4,6.8,5.2c7.8,6.2,15.2,12.9,22.2,20.1c0,0,0.1,0,0.1,0.1c1.2,1.3,2.4,2.6,3.6,3.9c0.6,0.7,1.6,1,2.5,1
			c0.9,0,1.8-0.3,2.5-1c0.6-0.6,1-1.6,1.1-2.5c0-0.9-0.3-1.8-1-2.5c-7.6-7.9-15.7-15.2-24.3-22c-0.3-0.2-0.5-0.4-0.8-0.7
			c-0.2-0.2-0.4-0.3-0.6-0.5c-4.2-3.3-8.6-6.4-13-9.4c-12.5-8.4-25.7-15.7-39.5-21.5c-13.8-5.9-28.1-10.5-42.8-13.7
			c-1.3-0.3-2.7-0.5-4-0.8l0,0.1c-11.5-2.3-23.2-3.8-34.9-4.4c-14.9-0.8-30-0.2-44.7,1.9c-9.7,1.3-19.4,3.3-28.9,5.8l0,0
			c-6.7,1.7-13.2,3.8-19.6,6.1c-14,5.1-27.5,11.5-40.3,19.1c-9.6,5.7-18.9,12.1-27.6,19.1c-1.5,1.2-2.9,2.4-4.4,3.6
			C508.1,120.6,508.2,120.6,508.2,120.5z"/>
		<path class="st1" d="M508.2,437.1c-8.3-9.5-15.6-19.8-21.9-30.7c-6.3-10.9-11.6-22.3-15.8-34.1c-4.2-11.8-7.2-24-9.2-36.4
			c-1.9-12.3-2.7-24.9-2.3-37.4c0.4-12.5,2-24.9,4.7-37.1c2.7-12.2,6.6-24,11.5-35.4c4.8-11.4,10.8-22.4,17.8-32.7
			c0.3-0.4,0.4-0.9,0.5-1.3c0.5-0.8,1.1-1.5,1.6-2.3c0,0,0,0,0-0.1c0.6-0.8,0.7-1.8,0.6-2.6c-0.2-0.9-0.6-1.7-1.5-2.3
			c-0.8-0.6-1.8-0.7-2.6-0.6c-0.9,0.2-1.7,0.6-2.3,1.5c-7.1,10.7-13.3,21.9-18.4,33.7c-4,9.4-7.3,19-9.9,28.8h0.4
			c-1.1,4-2,8.1-2.8,12.2c-2.5,12.5-3.8,25.3-3.9,38.1c-0.1,12.8,1,25.5,3.2,38c1.2,6.9,2.8,13.6,4.7,20.3h-0.2
			c1.2,4.1,2.4,8.1,3.8,12.1c4.3,12,9.5,23.5,16,34.5c6.3,10.9,13.7,21.3,22,30.8c8.3,9.6,17.4,18.3,27.4,26.2
			c-2.3-1.9-4.5-3.8-6.7-5.8c3.5,3,7,5.9,10.7,8.6C525.5,455.4,516.4,446.7,508.2,437.1z"/>
		<path class="st1" d="M814.4,458c0.2-0.2,0.5-0.5,0.7-0.7c-4.6,4.6-9.4,8.9-14.5,13.1c-4.2,3.5-8.6,6.8-13.1,9.9
			c-11.2,7.9-23.1,14.8-35.5,20.4c-10.8,4.9-22,8.9-33.3,12l0,0.1c-3.4,0.9-6.9,1.8-10.3,2.6c-13.3,3-26.9,4.7-40.6,5.1
			c-13.7,0.4-27.2-0.5-40.7-2.6c-5.7-0.9-11.4-2-17-3.4l0-0.2c-5.9-1.5-11.7-3.1-17.5-5c-12.9-4.3-25.3-9.8-37.2-16.4
			c-11.8-6.6-23-14.3-33.4-23c-0.2-0.2-0.5-0.3-0.7-0.4c-1.1-0.9-2.1-1.8-3.1-2.7c-0.8-0.6-1.7-0.9-2.6-0.8c-1,0.1-1.8,0.5-2.4,1.3
			c-0.6,0.7-0.9,1.7-0.8,2.6c0.1,0.9,0.5,1.8,1.3,2.4c10.7,9,22.2,17,34.4,23.8c12.1,6.8,24.9,12.5,38.1,16.9
			c13.2,4.4,26.8,7.5,40.5,9.4c13.7,1.8,27.6,2.4,41.4,1.8c13.8-0.7,27.6-2.7,41-5.9c5.9-1.5,11.8-3.2,17.6-5.1
			c0.5-0.2,1-0.3,1.5-0.5c0.7-0.2,1.3-0.5,2-0.7c1.1-0.4,2.2-0.8,3.3-1.2c0.2-0.1,0.5-0.2,0.7-0.3c6.4-2.4,12.7-5,18.8-8
			c12.4-6,24.3-13.1,35.3-21.3c11.1-8.2,21.4-17.4,30.6-27.5C817.3,455.1,815.9,456.6,814.4,458z"/>
		<path class="st1" d="M428.4,407c-6.4-14.6-11.5-29.7-15-45.2c-3.6-15.5-5.6-31.4-6.2-47.2c-0.6-15.9,0.3-31.7,2.7-47.5
			c2.4-15.6,6.3-31.1,11.5-46c5.2-14.9,11.9-29.4,19.9-43c3-5.1,6.1-10.1,9.4-14.9c0.4-0.6,0.8-1.1,1.2-1.6c0.7-1,1.4-2,2.1-2.9
			c5.7-8,11.9-15.6,18.5-22.8c10.7-11.7,22.4-22.2,35-31.7c0.8-0.6,1.2-1.4,1.4-2.3c0.2-0.9-0.1-1.8-0.7-2.6
			c-0.6-0.8-1.4-1.2-2.3-1.4c-0.9-0.1-1.8,0.2-2.7,0.7c-1.1,0.9-2.2,1.8-3.4,2.7c-0.4,0.1-0.7,0.3-1.1,0.6
			c-12.5,10.3-24.1,21.6-34.6,34c-10.4,12.4-19.7,25.7-27.5,39.8c-6,10.7-11.2,21.9-15.6,33.4c-0.7,1.9-1.4,3.8-2.1,5.6
			c-3.9,10.9-7.1,22.2-9.5,33.5h0.1c-1.3,6.2-2.3,12.3-3.2,18.5c-2.1,16-2.7,32-1.9,48.1c0.8,14.2,2.8,28.2,5.9,42h-0.2
			c3.5,15.6,8.5,30.9,14.9,45.5c6.4,14.7,14.1,28.7,23.2,41.8c-1.4-2.1-2.7-4.2-4-6.3c2.4,3.7,4.9,7.4,7.4,10.9
			C442.7,435.6,434.8,421.7,428.4,407z"/>
		<path class="st1" d="M783,142.5c3.1,2.4,6,4.9,8.9,7.5c-1.8-1.5-3.6-3-5.4-4.5c9.7,8,18.6,17,26.7,26.8c8,9.7,15.1,20.2,21.2,31.2
			c6.1,11,11.1,22.6,15,34.5c1.1,3.4,2.1,6.8,3,10.2h0c1.9,7.1,3.5,14.4,4.6,21.7c1.9,12.3,2.6,24.9,2.3,37.4
			c-0.4,12.5-2,24.9-4.7,37.1c-2.7,12.2-6.6,24-11.5,35.4c-4.9,11.4-10.8,22.3-17.8,32.6c-0.1,0.2-0.2,0.3-0.3,0.5
			c-0.8,1.1-1.5,2.2-2.3,3.4c0,0,0,0,0,0.1c-0.6,0.8-0.7,1.8-0.6,2.6c0.2,0.9,0.7,1.7,1.5,2.2c0.8,0.6,1.8,0.7,2.6,0.6
			c0.9-0.2,1.7-0.7,2.2-1.5c0.8-1.2,1.6-2.5,2.4-3.7c0.1-0.1,0.2-0.2,0.2-0.3c6.9-10.8,12.8-22.2,17.6-34.2
			c4.8-11.8,8.5-24.2,11-36.7c2.5-12.5,3.8-25.3,3.9-38.1c0.1-12.8-1-25.5-3.2-38c-2.2-12.6-5.6-24.8-10.2-36.7
			c-4.5-11.9-10.1-23.3-16.8-34.2c-6.6-10.8-14.2-21-22.7-30.3C802.5,158.7,793.1,150.1,783,142.5z"/>
	</g>
</g>
</svg>
