<?xml version="1.0" encoding="utf-8"?>
<!-- Generator: Adobe Illustrator 27.0.1, SVG Export Plug-In . SVG Version: 6.00 Build 0)  -->
<svg version="1.1" id="Layer_1" xmlns="http://www.w3.org/2000/svg" xmlns:xlink="http://www.w3.org/1999/xlink" x="0px" y="0px"
	 viewBox="0 0 1366 768" style="enable-background:new 0 0 1366 768;" xml:space="preserve">
<style type="text/css">
	.st0{fill:#FFFFFF;}
	.st1{fill:#0090FF;}
</style>
<g>
	<path class="st0" d="M191.6,339.8v7h27.6v55.1h7v-55.1h27.5v-7H191.6z M309.6,357.1c-1-1.6-2.2-2.8-3.8-3.8
		c-1.6-0.9-3.3-1.4-5.2-1.4h-33.4v-16.4H260v66.4h7.1v-39.6c0-0.9,0.3-1.7,1-2.4c0.7-0.7,1.5-1,2.4-1h30c0.9,0,1.7,0.3,2.4,1
		s1,1.4,1,2.4v39.6h7.1v-39.6C311,360.4,310.5,358.7,309.6,357.1z M327.9,351.9c-1.9,0-3.6,0.5-5.2,1.4c-1.6,1-2.8,2.2-3.8,3.8
		c-1,1.6-1.4,3.3-1.4,5.2v39.6h7.1v-39.6c0-0.9,0.3-1.7,1-2.4c0.7-0.7,1.5-1,2.4-1H356v-7.1H327.9z M361.6,351.9v50h7.1v-50H361.6z
		 M361.6,335.5v7.1h7.1v-7.1H361.6z M431.6,351.9L408.1,395l-23.5-43.1h-8.3l27.6,50h8.2l27.7-50H431.6z M495.5,380.4v-18.1
		c0-1.9-0.5-3.6-1.4-5.2c-0.9-1.6-2.2-2.8-3.8-3.8c-1.6-0.9-3.3-1.4-5.3-1.4h-30c-1.9,0-3.6,0.5-5.2,1.4c-1.6,1-2.8,2.2-3.8,3.8
		c-0.9,1.6-1.4,3.3-1.4,5.2v29.2c0,1.9,0.5,3.6,1.4,5.2c1,1.6,2.2,2.9,3.8,3.8c1.6,1,3.3,1.4,5.2,1.4h40.5v-7.1H455
		c-0.9,0-1.7-0.3-2.4-1c-0.7-0.7-1-1.4-1-2.4v-11H495.5z M451.6,362.3c0-0.9,0.3-1.7,1-2.4c0.7-0.7,1.4-1,2.4-1h30
		c0.9,0,1.7,0.3,2.4,1c0.7,0.7,1,1.4,1,2.4v11h-36.7V362.3z M588.8,345.1c-0.9-1.5-2.2-2.8-3.7-3.8c-1.6-0.9-3.3-1.4-5.2-1.4h-51.7
		v62h7v-23.1h44.8c1.9,0,3.6-0.5,5.2-1.4c1.6-1,2.8-2.2,3.7-3.7c0.9-1.5,1.4-3.3,1.4-5.2v-18.2C590.2,348.3,589.7,346.6,588.8,345.1
		z M583.2,368.4c0,0.9-0.3,1.7-1,2.3c-0.7,0.6-1.4,1-2.4,1h-41.4c-0.9,0-1.7-0.3-2.4-1c-0.7-0.6-1-1.4-1-2.3v-18.2
		c0-0.9,0.3-1.7,1-2.4c0.7-0.7,1.4-1,2.4-1h41.4c0.9,0,1.7,0.3,2.4,1c0.7,0.7,1,1.5,1,2.4V368.4z M646.8,380.4v-18.1
		c0-1.9-0.5-3.6-1.4-5.2c-1-1.6-2.2-2.8-3.8-3.8c-1.6-0.9-3.3-1.4-5.3-1.4h-30c-1.9,0-3.6,0.5-5.2,1.4c-1.6,1-2.8,2.2-3.8,3.8
		c-1,1.6-1.4,3.3-1.4,5.2v29.2c0,1.9,0.5,3.6,1.4,5.2c1,1.6,2.2,2.9,3.8,3.8c1.6,1,3.3,1.4,5.2,1.4h40.5v-7.1h-40.5
		c-0.9,0-1.7-0.3-2.4-1c-0.7-0.7-1-1.4-1-2.4v-11H646.8z M602.9,362.3c0-0.9,0.3-1.7,1-2.4c0.7-0.7,1.5-1,2.4-1h30
		c0.9,0,1.7,0.3,2.4,1s1,1.4,1,2.4v11h-36.7V362.3z M665.6,351.9c-1.9,0-3.6,0.5-5.2,1.4c-1.6,1-2.9,2.2-3.8,3.8
		c-0.9,1.6-1.4,3.3-1.4,5.2v39.6h7.1v-39.6c0-0.9,0.3-1.7,1-2.4c0.7-0.7,1.5-1,2.4-1h28.1v-7.1H665.6z M749.9,363v-0.7
		c0-1.9-0.5-3.6-1.4-5.2c-0.9-1.6-2.2-2.8-3.8-3.8c-1.6-0.9-3.3-1.4-5.3-1.4h-30c-1.9,0-3.6,0.5-5.2,1.4c-1.6,1-2.8,2.2-3.8,3.8
		c-1,1.6-1.4,3.3-1.4,5.2v7.7c0,1.9,0.5,3.6,1.4,5.2c1,1.6,2.2,2.8,3.8,3.8c1.6,1,3.3,1.4,5.2,1.4h30c0.9,0,1.7,0.3,2.4,1
		c0.7,0.7,1,1.5,1,2.4v7.7c0,0.9-0.3,1.7-1,2.4c-0.7,0.7-1.4,1-2.4,1h-30c-0.9,0-1.7-0.3-2.4-1c-0.7-0.7-1-1.4-1-2.4v-0.7H699v0.7
		c0,1.9,0.5,3.6,1.4,5.2c1,1.6,2.2,2.9,3.8,3.8s3.3,1.4,5.2,1.4h30c2,0,3.7-0.5,5.3-1.4c1.6-1,2.9-2.2,3.8-3.8
		c1-1.6,1.4-3.3,1.4-5.2v-7.7c0-1.9-0.5-3.6-1.4-5.2c-0.9-1.6-2.2-2.8-3.8-3.8c-1.6-1-3.3-1.4-5.3-1.4h-30c-0.9,0-1.7-0.3-2.4-1
		c-0.7-0.7-1-1.5-1-2.4v-7.7c0-0.9,0.3-1.7,1-2.4c0.7-0.7,1.5-1,2.4-1h30c0.9,0,1.7,0.3,2.4,1c0.7,0.7,1,1.4,1,2.4v0.7H749.9z
		 M807.9,357.1c-1-1.6-2.2-2.8-3.8-3.8c-1.6-0.9-3.3-1.4-5.3-1.4h-30c-1.9,0-3.6,0.5-5.2,1.4c-1.6,1-2.8,2.2-3.8,3.8
		c-1,1.6-1.4,3.3-1.4,5.2v29.2c0,1.9,0.5,3.6,1.4,5.2c1,1.6,2.2,2.9,3.8,3.8s3.3,1.4,5.2,1.4h30c2,0,3.7-0.5,5.3-1.4
		s2.8-2.2,3.8-3.8c1-1.6,1.4-3.3,1.4-5.2v-29.2C809.4,360.4,808.9,358.7,807.9,357.1z M802.2,391.4c0,0.9-0.3,1.7-1,2.4
		c-0.7,0.7-1.5,1-2.4,1h-30c-0.9,0-1.7-0.3-2.4-1c-0.7-0.7-1-1.4-1-2.4v-29.2c0-0.9,0.3-1.7,1-2.4c0.7-0.7,1.5-1,2.4-1h30
		c0.9,0,1.7,0.3,2.4,1s1,1.4,1,2.4V391.4z M866.6,357.1c-1-1.6-2.2-2.8-3.8-3.8c-1.6-0.9-3.3-1.4-5.2-1.4H817v50h7.1v-39.6
		c0-0.9,0.3-1.7,1-2.4c0.7-0.7,1.5-1,2.4-1h30c0.9,0,1.7,0.3,2.4,1s1,1.4,1,2.4v39.6h7.1v-39.6C868,360.4,867.5,358.7,866.6,357.1z
		 M925,357.1c-1-1.6-2.2-2.8-3.8-3.8c-1.6-0.9-3.3-1.4-5.3-1.4h-30c-1.9,0-3.6,0.5-5.2,1.4c-1.6,1-2.8,2.2-3.8,3.8
		c-1,1.6-1.4,3.3-1.4,5.2v29.2c0,1.9,0.5,3.6,1.4,5.2c1,1.6,2.2,2.9,3.8,3.8c1.6,1,3.3,1.4,5.2,1.4h30c2,0,3.7-0.5,5.3-1.4
		s2.8-2.2,3.8-3.8c1-1.6,1.4-3.3,1.4-5.2v-29.2C926.4,360.4,926,358.7,925,357.1z M919.3,391.4c0,0.9-0.3,1.7-1,2.4
		c-0.7,0.7-1.5,1-2.4,1h-30c-0.9,0-1.7-0.3-2.4-1c-0.7-0.7-1-1.4-1-2.4v-29.2c0-0.9,0.3-1.7,1-2.4c0.7-0.7,1.5-1,2.4-1h30
		c0.9,0,1.7,0.3,2.4,1s1,1.4,1,2.4V391.4z M943.9,394.8c-0.9,0-1.7-0.3-2.4-1c-0.7-0.7-1-1.4-1-2.4v-56h-7.1v56
		c0,1.9,0.5,3.6,1.4,5.2c1,1.6,2.2,2.9,3.8,3.8s3.3,1.4,5.2,1.4h8.4v-7.1H943.9z M1008.1,357.1c-0.9-1.6-2.2-2.8-3.8-3.8
		c-1.6-0.9-3.3-1.4-5.3-1.4h-30c-1.9,0-3.6,0.5-5.2,1.4c-1.6,1-2.8,2.2-3.8,3.8c-1,1.6-1.4,3.3-1.4,5.2v29.2c0,1.9,0.5,3.6,1.4,5.2
		c1,1.6,2.2,2.9,3.8,3.8s3.3,1.4,5.2,1.4h30c2,0,3.7-0.5,5.3-1.4c1.6-1,2.9-2.2,3.8-3.8c1-1.6,1.4-3.3,1.4-5.2v-29.2
		C1009.6,360.4,1009.1,358.7,1008.1,357.1z M1002.4,391.4c0,0.9-0.3,1.7-1,2.4c-0.7,0.7-1.4,1-2.4,1h-30c-0.9,0-1.7-0.3-2.4-1
		c-0.7-0.7-1-1.4-1-2.4v-29.2c0-0.9,0.3-1.7,1-2.4c0.7-0.7,1.5-1,2.4-1h30c0.9,0,1.7,0.3,2.4,1c0.7,0.7,1,1.4,1,2.4V391.4z
		 M1066.9,357.1c-0.9-1.6-2.2-2.8-3.7-3.8c-1.6-0.9-3.3-1.4-5.3-1.4h-30c-1.9,0-3.6,0.5-5.2,1.4c-1.6,1-2.8,2.2-3.8,3.8
		c-0.9,1.6-1.4,3.3-1.4,5.2v29.2c0,1.9,0.5,3.6,1.4,5.2c1,1.6,2.2,2.9,3.8,3.8c1.6,1,3.3,1.4,5.2,1.4h33.4v9.2c0,0.9-0.3,1.7-1,2.4
		c-0.7,0.7-1.4,1-2.4,1h-31.2v7.2h31.2c2,0,3.7-0.5,5.3-1.4c1.6-1,2.8-2.2,3.7-3.8c0.9-1.6,1.4-3.3,1.4-5.3v-48.8
		C1068.3,360.4,1067.8,358.7,1066.9,357.1z M1061.2,391.4c0,0.9-0.3,1.7-1,2.4c-0.7,0.7-1.4,1-2.4,1h-30c-0.9,0-1.7-0.3-2.4-1
		c-0.7-0.7-1-1.4-1-2.4v-29.2c0-0.9,0.3-1.7,1-2.4s1.4-1,2.4-1h30c0.9,0,1.7,0.3,2.4,1c0.7,0.7,1,1.4,1,2.4V391.4z M1120.2,352v39.4
		c0,0.9-0.3,1.7-1,2.4c-0.7,0.7-1.5,1-2.4,1h-30c-0.9,0-1.7-0.3-2.4-1c-0.7-0.7-1-1.4-1-2.4V352h-7.1v39.4c0,1.9,0.5,3.6,1.4,5.2
		c1,1.6,2.2,2.9,3.8,3.8s3.3,1.4,5.2,1.4h33.4v9.3c0,0.9-0.3,1.7-1,2.4c-0.7,0.7-1.5,1-2.4,1h-31.2v7.2h31.2c2,0,3.7-0.5,5.3-1.4
		c1.6-1,2.8-2.2,3.7-3.8c0.9-1.6,1.4-3.3,1.4-5.3V352H1120.2z"/>
</g>
<g>
	<g>
		<path class="st0" d="M626.6,429.2v54.9h15.7v-54.9H626.6z"/>
		<path class="st0" d="M653.7,429.2v54.7h15.7v-54.7H653.7z"/>
	</g>
	<path class="st0" d="M754.3,244.9v29.9c0,4.3-1,8.1-3.1,11.6c-2.1,3.5-4.9,6.3-8.4,8.4c-3.6,2.1-7.5,3.2-11.7,3.2h-61.6v16.7h-15.7
		v-32.6H731c2.1,0,3.8-0.7,5.3-2.1c1.5-1.4,2.2-3.2,2.2-5.3v-29.9c0-2.1-0.7-3.8-2.2-5.3c-1.5-1.5-3.3-2.2-5.3-2.2h-81.5
		c0,0-1.3,0-3.4,0h-3.8v77.5h-15.7v-77.5h-45.3v19.1h-16.7v-34.8H731c4.3,0,8.2,1.1,11.7,3.2c3.6,2.1,6.4,4.9,8.4,8.4
		C753.2,236.8,754.3,240.6,754.3,244.9z"/>
</g>
<path class="st1" d="M1016.4,431.2l-24-0.5l-47.6-1.2l-95.2-0.1l-80.5-0.1h-30.2l-64.3-0.1H374l-47.6,1.2
	c-15.8,0.4-31.8,0.7-47.6,1.6c31.2,0.6,62.5,1.3,93.7,1.9c0,0.1,0.1,0.3,0.1,0.4c4.1,18.1,9.8,35.6,17.2,52.5
	c7.4,17,16.3,33.1,26.8,48.2c-10.1-15.4-18.8-31.6-25.7-48.7c-7-16.9-12.4-34.5-16.1-52.4h17.9c1.8,7.9,4.1,15.6,6.7,23.2
	c5.5,16.3,12.5,32,20.9,46.9c8.4,14.9,18.2,29.1,29.3,42.1c-10.8-13.2-20.3-27.6-28.4-42.6c-8.1-15.1-14.7-30.8-19.8-47.1
	c-2.3-7.4-4.3-15-6-22.6h17.4c3.6,14.1,8.5,27.9,14.5,41.1c6.6,14.4,14.4,28.3,23.6,41.3c9.2,13,19.5,25.1,30.9,36
	c-11.1-11.2-21.2-23.5-30.1-36.7c-8.8-13.1-16.4-27-22.6-41.5c-5.6-13.1-10-26.5-13.3-40.3h16.9c1.4,4.8,2.9,9.6,4.5,14.4
	c4.9,13.8,11,27.1,18.4,39.8c7.3,12.6,15.8,24.5,25.4,35.5c9.5,11,20.1,21.1,31.6,30.2c-11.2-9.3-21.5-19.6-30.7-30.8
	c-9.3-11.2-17.4-23.2-24.4-35.9c-6.9-12.7-12.8-26-17.2-39.7c-1.5-4.4-2.8-8.9-4-13.3h16.7c3,9.6,6.7,19,10.9,28.1
	c5.7,12.1,12.5,23.6,20.4,34.4c7.8,10.8,16.7,20.8,26.3,30c9.6,9.2,20.2,17.3,31.4,24.5c-11-7.4-21.2-15.9-30.7-25.3
	c-9.3-9.4-17.9-19.5-25.4-30.5c-7.5-10.9-13.9-22.5-19.3-34.5c-3.9-8.7-7.1-17.7-9.7-26.8h217.9l49.8,0.1l16.6,0h30.3l78.4,0.1h10.8
	c-0.4,1.1-0.7,2.1-1,3.2c-4.2,12.3-9.5,24.3-15.9,35.7c0,0,0,0,0,0.1c-0.3,0.6-0.5,1.3-0.5,1.9c0,0.4,0.1,0.8,0.2,1.3
	c0.3,1,1,1.8,1.9,2.4c1,0.6,2.1,0.6,3.1,0.3c1-0.3,1.9-1,2.4-1.9c6.3-11.9,11.6-24.5,15.6-37.3c0.6-1.8,1.1-3.6,1.6-5.5h13.4
	c-3.1,10.8-7,21.3-11.7,31.6c-6,13.1-13.1,25.5-21.4,37.1c0,0,0,0,0,0.1c-0.7,0.9-0.8,2-0.7,3c0.2,1,0.8,1.9,1.8,2.6
	c0.9,0.7,2,0.8,3,0.7s1.9-0.8,2.6-1.8c8.2-12.3,15.4-25.3,21.2-38.9c4.8-11.2,8.7-22.7,11.7-34.4h14c-1.8,6.8-3.9,13.5-6.3,20.2
	c-5.3,14.7-11.9,28.9-19.9,42.4c-8,13.4-17.1,26.1-27.4,37.9c-0.7,0.7-0.9,1.7-0.9,2.6c0,0.1,0,0.3,0,0.4c0.1,1,0.6,2,1.5,2.8
	c0.8,0.7,1.9,1,3,0.9c1-0.1,2-0.6,2.8-1.5c10.4-12.3,19.5-25.6,27.4-39.6c7.9-14,14.4-28.7,19.4-43.9c2.4-7.3,4.5-14.7,6.3-22.2
	h14.6c-0.4,1.6-0.8,3.2-1.2,4.8c-4.4,16.4-10.2,32.3-17.5,47.6c-7.3,15.3-16.1,29.8-26.1,43.4c-10,13.6-21.3,26.2-33.7,37.7
	c-0.8,0.8-1.2,1.8-1.2,2.9c0,1,0.4,2.1,1.1,2.9c0.7,0.8,1.9,1.2,2.9,1.2c1,0,2.1-0.4,2.9-1.1c12.5-12,23.9-25.3,33.9-39.4
	c10-14.2,18.7-29.3,25.8-45c7.2-15.7,12.9-32.2,16.9-49c0.5-2,0.9-4,1.4-6H943c-3,13.1-6.9,25.9-11.6,38.4
	c-6.5,17-14.5,33.5-24.1,49c-9.5,15.5-20.6,30.1-32.8,43.5c-12.3,13.4-25.8,25.6-40.4,36.5c-0.9,0.6-1.4,1.7-1.6,2.7
	c-0.1,1,0.1,2.1,0.8,3.1c0.7,0.9,1.7,1.4,2.7,1.6c1,0.1,2.1-0.2,3.1-0.8c14.7-11.5,28.4-24.3,40.7-38.2c12.3-14,23.3-29.1,32.8-45.1
	c9.4-16,17.4-32.9,23.6-50.4c4.7-13.1,8.4-26.6,11.2-40.2l45.1-1l23.8-0.6l23.8-0.6L1016.4,431.2z M1016.2,312.1l-23.8-0.8
	l-46.2-1.1c-4-18-9.8-35.6-17.1-52.4c-7.4-16.9-16.3-33-26.8-48.2c10.1,15.4,18.8,31.7,25.7,48.7c6.9,16.8,12.3,34.2,16,52h-17.9
	c-1.8-7.7-4.1-15.3-6.6-22.8c-5.5-16.3-12.5-32-20.9-46.9c-8.4-14.9-18.2-29.1-29.3-42.1c10.8,13.2,20.3,27.6,28.4,42.6
	c8.2,15,14.7,30.8,19.8,47.1c2.3,7.3,4.3,14.6,5.9,22.1h-17.4c-3.6-13.9-8.4-27.5-14.4-40.6c-6.6-14.4-14.4-28.3-23.6-41.3
	c-9.2-13-19.5-25.1-30.9-36c11.2,11.2,21.2,23.5,30,36.7c8.8,13.1,16.4,27,22.6,41.5c5.5,12.9,9.9,26.2,13.2,39.7h-17
	c-1.3-4.6-2.8-9.3-4.4-13.8c-4.9-13.8-11-27.1-18.4-39.7c-7.3-12.6-15.8-24.5-25.4-35.6c-9.5-11-20.1-21.1-31.6-30.2
	c11.2,9.3,21.5,19.6,30.7,30.8c9.3,11.2,17.4,23.2,24.4,35.9c7,12.7,12.8,26,17.3,39.7c1.4,4.3,2.6,8.5,3.8,12.8h-16.7
	c-3-9.4-6.6-18.6-10.7-27.5c-5.7-12.1-12.5-23.6-20.4-34.4c-7.8-10.8-16.7-20.8-26.3-30c-9.6-9.2-20.2-17.3-31.4-24.5
	c11,7.4,21.2,15.9,30.7,25.3c9.4,9.4,17.9,19.5,25.4,30.5c7.5,10.9,13.9,22.5,19.3,34.5c3.8,8.5,6.9,17.3,9.5,26.2h-12.3l-135.2-0.1
	h-256c0.3-0.8,0.6-1.8,0.8-2.7c4.2-12.3,9.5-24.3,15.9-35.7c0,0,0,0,0-0.1c0,0,0,0,0-0.1c0.6-1,0.7-2.1,0.3-3.2c-0.3-1-1-1.8-2-2.4
	c-1-0.6-2.1-0.6-3.1-0.3c-1,0.3-1.9,1-2.4,1.9c-6.3,11.9-11.6,24.5-15.6,37.3c-0.5,1.6-1,3.2-1.5,4.8h-13.4
	c3.1-10.6,6.9-20.9,11.6-30.9c5.9-13.1,13.1-25.5,21.4-37.1c0,0,0,0,0-0.1c0.6-0.9,0.8-2,0.6-3c-0.2-1-0.7-1.9-1.8-2.6
	c-0.9-0.6-2-0.8-3-0.6c-1,0.2-1.9,0.7-2.6,1.8c-8.2,12.3-15.4,25.3-21.2,38.9c-4.7,11-8.6,22.3-11.7,33.9h-13.8
	c1.8-6.7,3.8-13.1,6.1-19.6c5.3-14.7,11.9-28.9,19.9-42.4c8-13.4,17.1-26.1,27.4-37.9c0.7-0.7,0.9-1.7,0.9-2.6c0-0.1,0-0.3,0-0.4
	c-0.1-1-0.6-2-1.5-2.8c-0.8-0.7-1.9-1-3-0.9c-1,0.1-2,0.6-2.8,1.5c-10.4,12.3-19.5,25.6-27.4,39.6c-7.9,14-14.4,28.7-19.4,43.9
	c-2.4,7.1-4.4,14.4-6.2,21.7h-14.6c0.4-1.4,0.7-2.9,1.1-4.3c4.3-16.4,10.2-32.3,17.5-47.6c7.3-15.3,16-29.8,26.1-43.4
	c10-13.6,21.3-26.2,33.7-37.7c0.8-0.7,1.2-1.8,1.3-2.9c0-1-0.4-2.1-1.1-2.9c-0.7-0.8-1.8-1.2-2.9-1.2c-1,0-2.1,0.4-2.9,1.1
	c-12.5,12-23.9,25.3-33.9,39.4c-10,14.2-18.7,29.3-25.8,45c-7.2,15.7-12.9,32.1-16.9,49c-0.5,1.9-0.8,3.7-1.3,5.6h-15.4
	c3-12.9,6.8-25.6,11.5-37.9c6.5-17,14.5-33.5,24.1-49c9.5-15.6,20.6-30.1,32.8-43.5c12.3-13.4,25.8-25.6,40.4-36.5
	c0.9-0.7,1.4-1.7,1.6-2.7c0.2-1-0.1-2.1-0.8-3c-0.6-0.9-1.7-1.4-2.7-1.6c-1-0.1-2.1,0.2-3.1,0.8c-14.7,11.4-28.3,24.3-40.7,38.2
	c-12.3,14-23.3,29.1-32.8,45.1c-9.4,16-17.3,33-23.6,50.4c-4.6,13-8.4,26.3-11.2,39.7l-45.2,1.1c-15.8,0.4-31.8,0.7-47.6,1.6
	c31.8,0.6,63.4,1.3,95.2,1.9l95.2-0.1h247.6l133,0.1l95.2,0.1l47.6-1l23.8-0.6l23.8-0.6L1016.2,312.1z M766.3,183.4
	c-0.5-1-1.2-1.9-2.2-2.4c-11.9-6.3-24.4-11.6-37.3-15.6c-12.9-4-26.1-6.8-39.4-8.3c-13.3-1.6-26.8-1.9-40.3-0.8
	c-13.4,0.9-26.7,3.2-39.6,6.6c-13,3.4-25.6,8-37.7,13.7c-12,5.7-23.6,12.5-34.4,20.4c-10.8,7.8-20.8,16.7-30,26.3
	c-9.2,9.6-17.3,20.2-24.5,31.4c7.4-11,15.9-21.3,25.3-30.7c9.4-9.3,19.5-17.9,30.5-25.4c10.9-7.5,22.5-13.9,34.5-19.3
	c12-5.3,24.5-9.5,37.4-12.5c12.8-3.1,25.8-4.8,39-5.5c13.1-0.6,26.2,0,39.2,1.9c13,1.8,25.7,4.9,38.1,9.1
	c12.3,4.2,24.2,9.5,35.6,15.9c0,0,0,0,0.1,0c0,0,0,0,0.1,0c1,0.6,2.1,0.7,3.1,0.3c1-0.3,1.9-1,2.4-1.9
	C766.5,185.6,766.6,184.4,766.3,183.4z M812.8,520.6c-9.4,9.4-19.5,17.9-30.4,25.4c-10.9,7.5-22.5,13.9-34.5,19.3
	c-12,5.3-24.5,9.5-37.4,12.5c-12.8,3.1-25.8,4.8-39,5.5c-13.1,0.7-26.2,0-39.2-1.8c-13-1.9-25.7-4.9-38.1-9.1
	c-12.3-4.2-24.3-9.5-35.6-15.9c0,0,0,0-0.1,0c0,0,0,0-0.1,0c-1-0.6-2.1-0.6-3.1-0.3c-1,0.3-1.9,1-2.4,2c-0.6,1-0.7,2.1-0.3,3.2
	c0.5,0.8,1.1,1.8,2.1,2.3c11.9,6.3,24.5,11.6,37.3,15.5c12.9,4,26.1,6.9,39.4,8.3c13.3,1.6,26.8,1.8,40.3,0.8
	c13.4-0.9,26.7-3.2,39.6-6.6c13-3.4,25.6-8,37.7-13.7c12-5.7,23.6-12.5,34.4-20.4c10.8-7.8,20.8-16.7,30-26.3
	c9.2-9.6,17.3-20.2,24.5-31.4C830.7,501,822.2,511.3,812.8,520.6z M796.4,179.5c-0.2-1-0.8-1.9-1.8-2.6
	c-12.3-8.2-25.3-15.4-38.9-21.2c-13.5-5.8-27.7-10.5-42-13.6c-14.4-3.2-29.1-5-43.8-5.5c-14.7-0.5-29.4,0.5-43.9,2.7
	c-14.5,2.2-28.8,5.8-42.6,10.7c-13.8,4.9-27.1,11-39.8,18.4c-12.7,7.3-24.5,15.8-35.5,25.4c-11,9.5-21.1,20.1-30.2,31.6
	c9.3-11.2,19.6-21.5,30.8-30.7c11.2-9.3,23.2-17.4,35.9-24.4c12.7-6.9,26-12.8,39.7-17.2c13.7-4.5,27.9-7.7,42.2-9.6
	c14.2-1.8,28.8-2.4,43.1-1.7c14.4,0.8,28.6,3,42.6,6.4c14,3.4,27.5,8.2,40.5,14.2c13,5.9,25.4,13.1,37.1,21.4c1,0.7,2,0.8,3.2,0.7
	c1-0.2,1.9-0.8,2.6-1.8C796.4,181.6,796.6,180.5,796.4,179.5z M810.2,549.8c-11.2,9.3-23.2,17.4-35.9,24.5
	c-12.7,6.9-26,12.8-39.7,17.3c-13.7,4.5-27.9,7.7-42.2,9.6c-14.2,1.8-28.8,2.4-43.1,1.7c-14.4-0.8-28.6-3-42.6-6.4
	c-14-3.4-27.5-8.2-40.5-14.2c-13.1-5.8-25.6-13.1-37.2-21.4c-1-0.6-2-0.8-3-0.6c-1,0.2-1.9,0.8-2.6,1.8c-0.7,0.9-0.8,2-0.7,3
	c0.2,1,0.8,1.9,1.8,2.6c12.3,8.2,25.3,15.4,38.9,21.2c13.6,5.8,27.7,10.5,42,13.6c14.4,3.2,29.1,5,43.8,5.5
	c14.7,0.5,29.4-0.5,43.9-2.7c14.5-2.2,28.8-5.8,42.6-10.7c13.8-4.9,27.1-11,39.8-18.4c12.7-7.3,24.5-15.8,35.5-25.5
	c11-9.5,21.1-20.1,30.2-31.6C831.8,530.2,821.4,540.5,810.2,549.8z M827,177c-12.3-10.4-25.6-19.5-39.6-27.4
	c-14-7.9-28.7-14.4-43.9-19.4c-15.2-5.1-30.8-8.7-46.7-10.8c-15.8-2.1-31.8-2.9-47.8-2c-15.9,0.8-31.8,3.2-47.2,6.9
	c-15.5,3.8-30.6,9-45.1,15.6c-14.4,6.6-28.3,14.4-41.3,23.6c-13,9.2-25.1,19.4-36,30.8c11.2-11.1,23.5-21.2,36.7-30
	c13.1-8.8,27-16.4,41.5-22.6c14.5-6.2,29.5-11,44.9-14.4c15.4-3.4,31-5.4,46.8-5.8c15.7-0.5,31.4,0.6,46.8,3
	c15.5,2.4,30.7,6.3,45.5,11.6c14.7,5.3,28.9,11.9,42.3,19.9c13.4,8.1,26.1,17.3,37.9,27.6c0.9,0.7,1.9,1,3.1,0.9
	c1-0.1,2-0.6,2.8-1.5c0.7-0.8,1-1.9,0.9-3C828.4,178.8,827.9,177.8,827,177z M802.7,580.2c-13.1,8.8-27,16.4-41.5,22.6
	c-14.5,6.2-29.5,11-44.9,14.4c-15.4,3.4-31,5.4-46.8,5.8c-15.7,0.5-31.4-0.6-46.9-3c-15.5-2.4-30.7-6.3-45.5-11.6
	c-14.7-5.3-28.9-11.9-42.3-19.9c-13.3-8.1-26-17.2-37.8-27.5c-0.9-0.7-1.9-1-3-0.9c-1.1,0.1-2,0.6-2.8,1.5c-0.7,0.8-1,1.9-0.9,3
	c0.1,1,0.6,2,1.5,2.8c12.3,10.4,25.6,19.5,39.6,27.4c14,7.9,28.7,14.4,43.9,19.4c15.2,5.1,30.8,8.7,46.7,10.8
	c15.8,2.1,31.8,2.8,47.8,2c15.9-0.8,31.8-3.2,47.2-6.9c15.5-3.8,30.5-9,45.1-15.5c14.4-6.6,28.3-14.4,41.3-23.6
	c13-9.2,25.1-19.5,36-30.9C828.2,561.3,815.9,571.4,802.7,580.2z M860.9,182.2c-12-12.5-25.3-23.9-39.4-33.9
	c-14.2-10-29.3-18.7-45-25.8c-15.7-7.1-32.1-12.9-49-16.9c-16.8-4.1-33.9-6.6-51.1-7.5c-17.2-0.9-34.5-0.2-51.6,2.2
	c-17,2.3-33.9,6.3-50.2,11.7c-16.3,5.5-32,12.5-46.9,20.9c-14.9,8.4-29.1,18.2-42.1,29.3c13.2-10.8,27.5-20.3,42.6-28.4
	c15-8,30.8-14.7,47.1-19.8c16.3-5.1,33-8.7,49.9-10.6c16.9-1.9,34-2.4,50.9-1.1c16.9,1.2,33.8,4,50.2,8.3
	c16.4,4.3,32.3,10.2,47.6,17.5c15.3,7.3,29.8,16,43.4,26.1c13.6,10,26.2,21.3,37.7,33.7c0.7,0.8,1.9,1.2,2.9,1.2
	c1,0,2.1-0.4,2.9-1.1s1.2-1.9,1.3-2.9C862,184.1,861.6,183,860.9,182.2z M790.9,610.6c-15,8.2-30.8,14.7-47.1,19.8
	c-16.3,5.1-33,8.7-49.9,10.6c-16.9,1.9-34,2.4-50.9,1.1c-16.9-1.2-33.8-4-50.2-8.3c-16.4-4.3-32.3-10.2-47.6-17.5
	c-15.3-7.3-29.8-16-43.4-26.1c-13.6-9.9-26.2-21.2-37.7-33.6c-0.8-0.8-1.8-1.3-3-1.3c-1,0-2.1,0.4-2.9,1.1c-0.7,0.7-1.2,1.9-1.2,2.9
	c0,1,0.4,2.1,1.1,2.9c12,12.5,25.3,23.9,39.4,33.9c14.2,10,29.3,18.7,45,25.8c15.7,7.1,32.1,12.9,49,16.9
	c16.7,4.1,33.9,6.6,51.1,7.5c17.2,0.9,34.5,0.2,51.6-2.2c17-2.3,33.9-6.3,50.2-11.7c16.3-5.5,32-12.5,46.9-20.9
	c14.9-8.4,29.1-18.2,42.1-29.3C820.2,593,805.9,602.5,790.9,610.6z M895.3,192.7c-11.5-14.7-24.3-28.3-38.2-40.6
	c-14-12.3-29.1-23.3-45.1-32.8c-16-9.4-32.9-17.3-50.4-23.6c-17.5-6.3-35.5-10.8-53.8-13.7c-18.3-2.9-36.9-4-55.4-3.4
	c-18.5,0.7-36.8,3-54.9,7c-18.1,4.1-35.6,9.8-52.5,17.2c-16.9,7.4-33.1,16.3-48.2,26.8c15.3-10.3,31.6-18.9,48.5-25.9
	c17-7,34.5-12.5,52.6-16.1c18-3.7,36.2-5.7,54.5-5.9c18.3-0.3,36.6,1.2,54.6,4.3c18,3.2,35.7,8.1,52.8,14.5
	c17,6.5,33.5,14.5,49,24.1c15.6,9.5,30.1,20.6,43.5,32.8c13.4,12.2,25.6,25.8,36.5,40.4c0.7,0.9,1.7,1.4,2.7,1.6
	c1,0.1,2.1-0.1,3-0.8c0.9-0.6,1.4-1.7,1.6-2.7C896.2,194.7,896,193.6,895.3,192.7z M773.5,640.9c-16.9,7-34.5,12.5-52.5,16.1
	c-18,3.7-36.3,5.6-54.5,5.9c-18.3,0.3-36.6-1.2-54.6-4.4c-18-3.1-35.7-8-52.7-14.4c-17-6.4-33.5-14.5-49-24.1
	c-15.6-9.5-30.1-20.6-43.5-32.8c-13.4-12.3-25.6-25.8-36.5-40.4c-0.7-0.9-1.7-1.4-2.7-1.6c-1-0.1-2.1,0.1-3,0.8
	c-0.9,0.7-1.4,1.7-1.6,2.7c-0.1,1,0.1,2.1,0.8,3c11.5,14.7,24.3,28.3,38.2,40.7c14,12.3,29.1,23.3,45.1,32.8
	c16,9.4,32.9,17.3,50.4,23.6c17.5,6.3,35.5,10.8,53.8,13.7c18.3,2.9,36.9,4,55.4,3.4c18.5-0.7,36.9-3,54.9-7
	c18.1-4.1,35.6-9.8,52.5-17.2c16.9-7.4,33.1-16.3,48.2-26.8C806.8,625.2,790.5,633.9,773.5,640.9z"/>
</svg>
